<svg xmlns="http://www.w3.org/2000/svg" width="512" height="512" viewBox="0 0 512 512" version="1.1">
	<path d="M 130.217 1.449 C 109.008 6.585, 90.952 25.191, 86.498 46.500 C 84.297 57.028, 84.297 454.972, 86.498 465.500 C 90.083 482.651, 102.338 498.282, 118.101 505.809 C 122.720 508.015, 128.885 510.310, 131.799 510.910 C 139.219 512.436, 372.781 512.436, 380.201 510.910 C 383.115 510.310, 389.280 508.015, 393.899 505.809 C 409.662 498.282, 421.917 482.651, 425.502 465.500 C 427.703 454.972, 427.703 57.028, 425.502 46.500 C 421.917 29.349, 409.662 13.718, 393.899 6.191 C 389.280 3.985, 383.115 1.690, 380.201 1.090 C 372.009 -0.595, 137.267 -0.258, 130.217 1.449 M 135.969 33.536 C 129.828 35.429, 123.228 41.316, 120.374 47.444 L 118.020 52.500 118.020 256 L 118.020 459.500 120.374 464.556 C 123.311 470.864, 129.875 476.588, 136.388 478.523 C 143.861 480.742, 368.139 480.742, 375.612 478.523 C 382.125 476.588, 388.689 470.864, 391.626 464.556 L 393.980 459.500 393.980 256 L 393.980 52.500 391.626 47.444 C 388.605 40.957, 382.083 35.371, 375.190 33.367 C 367.382 31.097, 353.125 31.772, 349.322 34.592 C 344.461 38.196, 342.206 42.546, 341.449 49.785 C 340.299 60.779, 337.576 66.607, 330.091 74.091 C 325.283 78.900, 321.877 81.328, 317.500 83.070 C 311.501 85.456, 311.490 85.457, 261.350 85.794 C 231.445 85.995, 208.293 85.729, 203.999 85.134 C 194.942 83.879, 187.770 80.402, 181.684 74.316 C 175.271 67.902, 172.240 61.299, 170.566 50.090 C 169.040 39.874, 166.743 36.141, 160.282 33.377 C 156.132 31.601, 141.945 31.694, 135.969 33.536 M 201.616 37.750 C 202.360 40.913, 202.976 44.930, 202.984 46.679 C 203.017 53.251, 200.908 53, 256 53 C 311.092 53, 308.983 53.251, 309.016 46.679 C 309.024 44.930, 309.640 40.913, 310.384 37.750 L 311.737 32 256 32 L 200.263 32 201.616 37.750 M 181.357 171.003 C 166.128 173.232, 153.557 184.955, 150.039 200.209 C 149.494 202.569, 149.038 213.067, 149.024 223.538 C 149.002 241.336, 149.147 242.863, 151.250 246.980 C 154.180 252.714, 157.698 255.168, 163.829 255.758 C 169.984 256.349, 175.996 253.349, 179.299 248.038 C 181.334 244.768, 181.526 243.026, 181.842 225 C 182.041 213.621, 182.613 204.979, 183.214 204.250 C 183.972 203.331, 189.205 203, 202.965 203 C 220.578 203, 221.943 202.864, 226.040 200.697 C 230.867 198.145, 235 191.739, 235 186.811 C 235 179.912, 229.436 173.048, 222.219 171.044 C 218.027 169.880, 189.226 169.850, 181.357 171.003 M 289 171.107 C 282.441 173.076, 277 180.196, 277 186.811 C 277 191.739, 281.133 198.145, 285.960 200.697 C 290.057 202.864, 291.422 203, 309.035 203 C 322.795 203, 328.028 203.331, 328.786 204.250 C 329.387 204.979, 329.959 213.621, 330.158 225 C 330.474 243.026, 330.666 244.768, 332.701 248.038 C 336.004 253.349, 342.016 256.349, 348.171 255.758 C 354.302 255.169, 357.804 252.724, 360.803 246.941 C 363.035 242.638, 363.096 241.831, 362.765 221 C 362.474 202.722, 362.141 198.826, 360.540 195 C 356.050 184.268, 348.613 176.924, 338.153 172.892 C 333.159 170.967, 330.168 170.674, 312.500 170.384 C 300.404 170.186, 291.117 170.471, 289 171.107 M 161 299.207 C 156.452 300.437, 151.228 305.507, 149.883 309.995 C 149.225 312.193, 148.951 321.545, 149.165 334.524 C 149.504 355.066, 149.570 355.626, 152.327 361.605 C 155.888 369.326, 163.619 377.026, 171.500 380.702 L 177.500 383.500 201.177 383.500 C 228.133 383.500, 228.438 383.418, 232.750 374.980 C 235.581 369.440, 235.581 366.560, 232.750 361.020 C 228.589 352.877, 227.630 352.569, 204.680 352 C 193.581 351.725, 183.938 351.136, 183.250 350.691 C 182.331 350.096, 181.994 345.324, 181.976 332.691 C 181.963 323.236, 181.543 313.735, 181.043 311.577 C 178.874 302.225, 170.027 296.765, 161 299.207 M 343.123 299.027 C 338.731 300.031, 334.991 302.876, 332.500 307.105 C 330.720 310.127, 330.465 312.642, 330.184 330 C 329.915 346.572, 329.623 349.688, 328.243 350.750 C 327.079 351.646, 321.416 352, 308.277 352 C 287.682 352, 284.914 352.624, 280.635 358.235 C 276.807 363.253, 276.277 369.360, 279.186 374.941 C 283.535 383.288, 284.109 383.458, 309.148 383.805 C 332.808 384.132, 337.027 383.506, 345 378.485 C 350.333 375.127, 356.879 367.491, 359.840 361.175 C 362.401 355.711, 362.513 354.742, 362.840 335.139 C 363.028 323.940, 362.897 313.266, 362.551 311.418 C 361.012 303.216, 351.455 297.121, 343.123 299.027" stroke="none" fill="black" fill-rule="evenodd"/>
</svg>